<svg width="39" height="39" viewBox="0 0 39 39" fill="none" xmlns="http://www.w3.org/2000/svg">
<g filter="url(#filter0_d_3150_1260)">
<path d="M12.9081 21.2421C12.7002 21.021 12.5662 20.7407 12.5247 20.44C12.4832 20.1393 12.5363 19.8332 12.6765 19.564C12.8228 19.2906 13.0472 19.0672 13.3226 18.9234L15.1483 18.0317C15.6054 17.8045 16.0035 17.4741 16.311 17.0667C16.6184 16.6593 16.827 16.186 16.9201 15.6841L17.2748 13.6579C17.3383 13.3568 17.4947 13.0832 17.7219 12.8756C17.9492 12.6681 18.2358 12.537 18.5415 12.501C18.8472 12.4649 19.1564 12.5257 19.4257 12.6747C19.695 12.8237 19.9108 13.0534 20.0426 13.3315L20.9361 15.1595C21.1632 15.6168 21.4936 16.015 21.9011 16.3227C22.3086 16.6304 22.7821 16.8391 23.2842 16.9323L25.3069 17.2902C25.6061 17.3516 25.8787 17.5047 26.0868 17.7282C26.295 17.9517 26.4283 18.2345 26.4682 18.5373C26.5081 18.84 26.4526 19.1477 26.3094 19.4175C26.1663 19.6873 25.9426 19.9058 25.6695 20.0425L23.8081 20.9534C23.3639 21.1789 22.9767 21.5021 22.6755 21.8988C22.3744 22.2955 22.1671 22.7554 22.0695 23.2438L21.7187 25.268C21.6571 25.5671 21.5039 25.8395 21.2804 26.0476C21.0568 26.2556 20.774 26.389 20.4713 26.429C20.1685 26.4691 19.8608 26.4139 19.5908 26.2711C19.3209 26.1283 19.1021 25.905 18.9648 25.6323L18.0757 23.805C17.8479 23.3454 17.5153 22.9455 17.1048 22.6378C16.6943 22.33 16.2173 22.1229 15.7121 22.033L13.6852 21.6757C13.3869 21.6153 13.1154 21.4631 12.9081 21.2421Z" fill="#358BB9"/>
</g>
<defs>
<filter id="filter0_d_3150_1260" x="0.510986" y="0.490967" width="37.9697" height="37.9507" filterUnits="userSpaceOnUse" color-interpolation-filters="sRGB">
<feFlood flood-opacity="0" result="BackgroundImageFix"/>
<feColorMatrix in="SourceAlpha" type="matrix" values="0 0 0 0 0 0 0 0 0 0 0 0 0 0 0 0 0 0 127 0" result="hardAlpha"/>
<feOffset/>
<feGaussianBlur stdDeviation="6"/>
<feComposite in2="hardAlpha" operator="out"/>
<feColorMatrix type="matrix" values="0 0 0 0 0.532812 0 0 0 0 0.184062 0 0 0 0 0.590937 0 0 0 0.35 0"/>
<feBlend mode="normal" in2="BackgroundImageFix" result="effect1_dropShadow_3150_1260"/>
<feBlend mode="normal" in="SourceGraphic" in2="effect1_dropShadow_3150_1260" result="shape"/>
</filter>
</defs>
</svg>
